<?xml version="1.0" encoding="UTF-8" standalone="no"?>
<svg
   height="16px"
   viewBox="0 0 16 16"
   width="16px"
   version="1.1"
   id="svg44"
   sodipodi:docname="step-out-symbolic.svg"
   inkscape:version="1.2.2 (b0a8486541, 2022-12-01)"
   xmlns:inkscape="http://www.inkscape.org/namespaces/inkscape"
   xmlns:sodipodi="http://sodipodi.sourceforge.net/DTD/sodipodi-0.dtd"
   xmlns="http://www.w3.org/2000/svg"
   xmlns:svg="http://www.w3.org/2000/svg">
  <defs
     id="defs48" />
  <sodipodi:namedview
     id="namedview46"
     pagecolor="#ffffff"
     bordercolor="#000000"
     borderopacity="0.25"
     inkscape:showpageshadow="2"
     inkscape:pageopacity="0.0"
     inkscape:pagecheckerboard="0"
     inkscape:deskcolor="#d1d1d1"
     showgrid="false"
     inkscape:zoom="31.392923"
     inkscape:cx="-3.2332128"
     inkscape:cy="5.7178493"
     inkscape:window-width="1920"
     inkscape:window-height="1129"
     inkscape:window-x="0"
     inkscape:window-y="0"
     inkscape:window-maximized="1"
     inkscape:current-layer="svg44" />
  <g
     aria-label="E"
     id="text432"
     style="font-style:italic;font-size:21.3333px;font-family:'Alegreya Sans';-inkscape-font-specification:'Alegreya Sans, Italic';stroke-width:0;stroke-linecap:round"
     transform="translate(-20.181366,0.68961423)">
    <path
       d="m 11.844737,11.005808 -0.0571,2.460859 -6.0078063,0.102457 -2.6252973,-0.08879 -0.1820288,-2.928856 0.00183,-7.8592467 2.7449895,-0.021336 2.2441688,0.1663413 0.2444577,-1.4221237 -0.128,-0.1919997 H 1.5519673 L 1.0944531,1.4220939 1.2488693,10.801768 1.0995362,14.777946 1.4645968,14.919095 H 13.554732 l 0.07247,-0.271398 -0.09275,-2.835742 -0.04067,-4.1583037 -0.271362,-0.2114346 -1.527421,0.2601668 z"
       style="font-style:normal;font-weight:500;-inkscape-font-specification:'Alegreya Sans, Medium'"
       id="path490"
       sodipodi:nodetypes="cccccccccccccccccccccc" />
  </g>
  <g
     aria-label="^"
     id="text563"
     style="font-weight:500;font-size:21.3333px;font-family:'Alegreya Sans';-inkscape-font-specification:'Alegreya Sans, Medium';stroke-width:0;stroke-linecap:round"
     transform="rotate(-2.1736304,18.662158,537.44713)">
    <path
       d="M 13.778316,6.214795 14.787252,1.633021 14.246941,1.0371537 14.008217,0.96711673 9.5687213,1.8528223 9.6623563,3.0368425 9.8709367,3.1056615 11.926697,2.6179885 8.4680164,5.9025309 4.4454578,9.4894949 5.4467521,10.903393 5.7411034,10.933303 8.6268818,8.181397 13.011407,3.8384764 12.510831,5.8756476 13.52147,6.2195148 Z"
       id="path565"
       sodipodi:nodetypes="ccccccccccccccccc" />
  </g>
  <g
     id="g557">
    <g
       aria-label="E"
       id="text508"
       style="font-size:21.3333px;font-family:'Alegreya Sans';-inkscape-font-specification:'Alegreya Sans, Normal';stroke-width:0;stroke-linecap:round" />
    <g
       aria-label="E"
       transform="scale(-1,1)"
       id="text508-4"
       style="font-size:21.3333px;font-family:'Alegreya Sans';-inkscape-font-specification:'Alegreya Sans, Normal';stroke-width:0;stroke-linecap:round">
      <g
         id="g562">
        <g
           id="g566">
          <path
             d="m 14.422397,11.386774 -0.01541,-2.1242741 -0.183608,-0.2378047 -1.51103,0.1898068 0.03803,2.065612 -0.171097,2.089933 -9.3906391,-0.02133 -0.064,-2.837329 0.08533,-7.935991 1.9438759,-0.042667 1.848654,0.064 0.1279994,-1.322664 -0.085333,-0.1706664 h -5.563194 l 0.1066665,9.5573184 -0.1066665,4.117327 13.0851368,-0.0475 z m -0.06808,-4.2152161 0.693186,-5.5583529 -0.795399,-0.71883398 -0.243346,-0.05174 -4.9669171,0.22986948 0.047519,1.468861 0.213197,0.052811 2.7521651,-0.078626 -3.3374219,3.4204157 -3.1085533,3.23666 1.1055887,1.3339298 0.2957715,0.0075 2.0383414,-2.3178344 4.1899196,-4.4666824 -0.46183,3.0678381 1.322038,0.3983492 z"
             id="path548"
             sodipodi:nodetypes="ccccccccccccccccccccccccccccccccccc"
             style="font-size:21.3333px;font-family:'Alegreya Sans';-inkscape-font-specification:'Alegreya Sans, Normal';stroke-width:0;stroke-linecap:round"
             transform="scale(-1,1)" />
        </g>
      </g>
    </g>
  </g>
</svg>
